<svg width="62" height="56" viewBox="0 0 62 56" fill="none" xmlns="http://www.w3.org/2000/svg">
<path d="M52 26.65H53.5C56.305 26.65 57.706 26.65 58.75 27.1927C59.434 27.5481 60.0021 28.0594 60.397 28.675C61 29.6146 61 30.8755 61 33.4C61 35.9245 61 37.1854 60.397 38.125C60.0021 38.7406 59.434 39.2519 58.75 39.6073C57.706 40.15 56.305 40.15 53.5 40.15H52M10 26.65H8.5C5.695 26.65 4.294 26.65 3.25 27.1927C2.56597 27.5481 1.99794 28.0594 1.603 28.675C1 29.6146 1 30.8755 1 33.4C1 35.9245 1 37.1854 1.603 38.125C1.99794 38.7406 2.56597 39.2519 3.25 39.6073C4.294 40.15 5.695 40.15 8.5 40.15H10M31 9.1C32.1935 9.1 33.3381 8.67331 34.182 7.91378C35.0259 7.15426 35.5 6.12413 35.5 5.05C35.5 3.97587 35.0259 2.94574 34.182 2.18622C33.3381 1.4267 32.1935 1 31 1C29.8065 1 28.6619 1.4267 27.818 2.18622C26.9741 2.94574 26.5 3.97587 26.5 5.05C26.5 6.12413 26.9741 7.15426 27.818 7.91378C28.6619 8.67331 29.8065 9.1 31 9.1ZM31 9.1V17.2M22 28V30.7M40 28V30.7M28 17.2H34C42.484 17.2 46.729 17.2 49.363 19.5733C52 21.9439 52 25.7644 52 33.4C52 41.0356 52 44.8561 49.363 47.2267C46.729 49.6 42.484 49.6 34 49.6H31C31 49.6 29.5 55 19 55C19 55 22 52.2757 22 49.5541C17.341 49.4272 14.56 48.9601 12.637 47.2267C10 44.8561 10 41.0356 10 33.4C10 25.7644 10 21.9439 12.637 19.5733C15.271 17.2 19.516 17.2 28 17.2Z" stroke="black" stroke-width="1.5" stroke-linecap="round" stroke-linejoin="round"/>
<path d="M25 40.15C25 40.15 27.001 41.5 31 41.5C34.999 41.5 37 40.15 37 40.15" stroke="black" stroke-width="1.5" stroke-linecap="round" stroke-linejoin="round"/>
</svg>
