<svg width="65" height="44" viewBox="0 0 65 44" fill="none" xmlns="http://www.w3.org/2000/svg">
<path d="M10.1997 4.19048C10.1997 3.07909 10.9214 2.01323 12.206 1.22736C13.4907 0.441495 15.233 0 17.0497 0H38.189C40.0055 0.000237338 41.7476 0.441888 43.0319 1.22781L62.9929 13.4389C64.2777 14.2245 64.9996 15.2902 65 16.4015V37.7143C65 38.8257 64.2783 39.8915 62.9937 40.6774C61.709 41.4633 59.9667 41.9048 58.15 41.9048H34.8256C36.2946 40.97 37.5379 39.9117 38.5178 38.7619H58.15C58.6041 38.7619 59.0397 38.6515 59.3609 38.4551C59.682 38.2586 59.8625 37.9921 59.8625 37.7143V16.7619H44.4499C42.6331 16.7619 40.8908 16.3204 39.6062 15.5345C38.3215 14.7487 37.5998 13.6828 37.5998 12.5714V3.14286H17.0497C16.5956 3.14286 16.16 3.25323 15.8388 3.4497C15.5177 3.64616 15.3372 3.91263 15.3372 4.19048V19.0164C13.573 19.184 11.8481 19.4809 10.1997 19.9006V4.19048ZM44.4499 13.619H56.0264L42.7374 5.48952V12.5714C42.7374 12.8493 42.9178 13.1157 43.239 13.3122C43.5601 13.5087 43.9957 13.619 44.4499 13.619ZM15.5427 23.9192C14.4981 25.8364 13.7857 28.4659 13.6487 31.4286H23.8758C23.7388 28.4638 23.0264 25.8364 21.9818 23.9171C21.3961 22.8423 20.7351 22.0461 20.0843 21.5411C19.413 21.0236 18.9575 20.9524 18.7623 20.9524C18.567 20.9524 18.1081 21.0236 17.4402 21.5411C16.7894 22.0461 16.1284 22.8402 15.5427 23.9171M13.5562 21.3966C13.0546 21.9937 12.632 22.6145 12.2924 23.253C11.1108 25.4215 10.3607 28.2815 10.2237 31.4265H0C0.346469 29.1144 1.82544 26.9202 4.24348 25.1307C6.66153 23.3412 9.9095 22.0397 13.5562 21.3966ZM25.2287 23.253C24.8902 22.6146 24.4687 21.9938 23.9683 21.3966C27.6173 22.0382 30.8642 23.3395 33.2833 25.1296C35.7024 26.9198 37.1807 29.1154 37.5245 31.4286H27.3008C27.1638 28.2857 26.4103 25.4236 25.2321 23.2571M37.5245 33.5238H27.3008C27.1638 36.6667 26.4103 39.5288 25.2321 41.6952C24.8938 42.3343 24.4723 42.9558 23.9717 43.5537C27.6196 42.9118 30.8654 41.6108 33.2838 39.821C35.7022 38.0313 37.1803 35.8363 37.5245 33.5238ZM20.0843 43.4112C19.4164 43.9288 18.9575 44 18.7623 44C18.567 44 18.1081 43.9288 17.4402 43.4112C16.7894 42.9063 16.1284 42.1122 15.5427 41.0331C14.4981 39.116 13.7857 36.4865 13.6487 33.5238H23.8758C23.7388 36.4886 23.0264 39.116 21.9818 41.0331C21.3961 42.1101 20.7351 42.9063 20.0843 43.4112ZM13.5528 43.5537C9.90608 42.9105 6.66153 41.6091 4.24348 39.8196C1.82544 38.0301 0.346469 35.8358 0 33.5238H10.2237C10.3607 36.6667 11.1142 39.5288 12.2924 41.6952C12.6623 42.372 13.0801 42.9985 13.5528 43.5537Z" fill="black"/>
</svg>
