<svg width="46" height="28" viewBox="0 0 46 28" fill="none" xmlns="http://www.w3.org/2000/svg">
<path d="M20.7 21H25.3V12.6H20.7V21ZM23 9.8C23.6517 9.8 24.1983 9.6656 24.6399 9.3968C25.0815 9.128 25.3015 8.79573 25.3 8.4C25.2985 8.00426 25.0777 7.672 24.6376 7.4032C24.1975 7.1344 23.6517 7 23 7C22.3483 7 21.8025 7.1344 21.3624 7.4032C20.9223 7.672 20.7015 8.00426 20.7 8.4C20.6985 8.79573 20.9193 9.12846 21.3624 9.3982C21.8055 9.66793 22.3514 9.80186 23 9.8ZM23 28C19.8183 28 16.8283 27.6323 14.03 26.8968C11.2317 26.1613 8.7975 25.1641 6.7275 23.905C4.6575 22.6459 3.01913 21.1643 1.8124 19.46C0.605669 17.7557 0.00153624 15.9357 2.91139e-06 14C-0.00153042 12.0643 0.602603 10.2443 1.8124 8.54C3.0222 6.83573 4.66057 5.35407 6.7275 4.095C8.79443 2.83593 11.2286 1.83867 14.03 1.1032C16.8314 0.367733 19.8214 0 23 0C26.1786 0 29.1686 0.367733 31.97 1.1032C34.7714 1.83867 37.2055 2.83593 39.2725 4.095C41.3394 5.35407 42.9785 6.83573 44.1899 8.54C45.4012 10.2443 46.0046 12.0643 46 14C45.9954 15.9357 45.3912 17.7557 44.1876 19.46C42.9839 21.1643 41.3455 22.6459 39.2725 23.905C37.1994 25.1641 34.7652 26.1618 31.97 26.8982C29.1747 27.6346 26.1847 28.0019 23 28ZM23 25.2C28.1367 25.2 32.4875 24.115 36.0525 21.945C39.6175 19.775 41.4 17.1267 41.4 14C41.4 10.8733 39.6175 8.225 36.0525 6.055C32.4875 3.885 28.1367 2.8 23 2.8C17.8633 2.8 13.5125 3.885 9.9475 6.055C6.3825 8.225 4.6 10.8733 4.6 14C4.6 17.1267 6.3825 19.775 9.9475 21.945C13.5125 24.115 17.8633 25.2 23 25.2Z" fill="black"/>
</svg>
