<svg width="58" height="49" viewBox="0 0 58 49" fill="none" xmlns="http://www.w3.org/2000/svg">
<path d="M14.1778 44.5455H24.4889C24.4889 46.9955 22.1689 49 19.3333 49C16.4978 49 14.1778 46.9955 14.1778 44.5455ZM9.02222 42.3182H29.6444V37.8636H9.02222V42.3182ZM38.6667 21.1591C38.6667 29.6673 31.8098 34.2109 28.9484 35.6364H9.71822C6.85689 34.2109 0 29.6673 0 21.1591C0 11.9382 8.66133 4.45455 19.3333 4.45455C30.0053 4.45455 38.6667 11.9382 38.6667 21.1591ZM33.5111 21.1591C33.5111 14.4105 27.144 8.90909 19.3333 8.90909C11.5227 8.90909 5.15556 14.4105 5.15556 21.1591C5.15556 26.6605 8.99644 29.8232 11.2133 31.1818H27.4533C29.6702 29.8232 33.5111 26.6605 33.5111 21.1591ZM51.2204 16.415L47.6889 17.8182L51.2204 19.2214L52.8444 22.2727L54.4684 19.2214L58 17.8182L54.4684 16.415L52.8444 13.3636L51.2204 16.415ZM45.1111 13.3636L47.5342 8.77545L52.8444 6.68182L47.5342 4.58818L45.1111 0L42.688 4.58818L37.3778 6.68182L42.688 8.77545L45.1111 13.3636Z" fill="black"/>
</svg>
