<svg width="66" height="40" viewBox="0 0 66 40" fill="none" xmlns="http://www.w3.org/2000/svg">
<path d="M41.4211 11H41.4547M33 37H11.1053C8.42518 37 5.85487 36.3679 3.95976 35.2426C2.06466 34.1174 1 32.5913 1 31V7C1 5.4087 2.06466 3.88258 3.95976 2.75736C5.85487 1.63214 8.42518 1 11.1053 1H51.5263C54.2064 1 56.7767 1.63214 58.6718 2.75736C60.5669 3.88258 61.6316 5.4087 61.6316 7V20" stroke="black" stroke-width="2" stroke-linecap="round" stroke-linejoin="round"/>
<path d="M1 27L17.8421 17C20.968 15.214 24.8215 15.214 27.9474 17L39.7368 24" stroke="black" stroke-width="2" stroke-linecap="round" stroke-linejoin="round"/>
<path d="M38.0526 23L41.421 21C43.7082 19.694 46.3827 19.342 48.8787 19.948M54.8947 39V27M54.8947 27L65 33M54.8947 27L44.7895 33" stroke="black" stroke-width="2" stroke-linecap="round" stroke-linejoin="round"/>
</svg>
